<?xml version="1.0" encoding="utf-8"?>
<svg version="1.1" id="disabled_unselected_radio" opacity="0.5"
	 xmlns="http://www.w3.org/2000/svg" xmlns:xlink="http://www.w3.org/1999/xlink" x="0px" y="0px" width="20px" height="20px"
	 viewBox="0 0 20 20" style="enable-background:new 0 0 20 20;" xml:space="preserve">
<style type="text/css">
	.st0{opacity:0.8;}
	.st1{fill:#FFFFFF;}
	.st2{fill:#3C3C3C;}
</style>
<g id="background" class="st0">
	<path class="st1" d="M10,0c5.52,0,10,4.48,10,10s-4.48,10-10,10S0,15.52,0,10S4.48,0,10,0z"/>
</g>
<path class="st2" d="M20,10c0,5.52-4.48,10-10,10S0,15.52,0,10S4.48,0,10,0S20,4.48,20,10z M10,2c-4.42,0-8,3.58-8,8s3.58,8,8,8
	s8-3.58,8-8S14.42,2,10,2z"/>
</svg>
