<?xml version="1.0" encoding="utf-8"?>
<svg version="1.1" id="pressed_unselected_radio" xmlns="http://www.w3.org/2000/svg" xmlns:xlink="http://www.w3.org/1999/xlink"
	 x="0px" y="0px" width="20px" height="20px" viewBox="0 0 20 20" style="enable-background:new 0 0 20 20;" xml:space="preserve">
<style type="text/css">
	.st0{opacity:0.15;}
	.st1{fill-rule:evenodd;clip-rule:evenodd;fill:#2B71B9;}
	.st2{fill-rule:evenodd;clip-rule:evenodd;fill:#035090;}
</style>
<g id="background" class="st0">
	<path class="st1" d="M10,0c5.52,0,10,4.48,10,10c0,5.52-4.48,10-10,10C4.48,20,0,15.52,0,10C0,4.48,4.48,0,10,0z"/>
</g>
<g id="Outer_ellipse">
	<path class="st2" d="M10,0c5.52,0,10,4.48,10,10c0,5.52-4.48,10-10,10C4.48,20,0,15.52,0,10C0,4.48,4.48,0,10,0z M10,2
		c4.42,0,8,3.58,8,8c0,4.42-3.58,8-8,8c-4.42,0-8-3.58-8-8C2,5.58,5.58,2,10,2z"/>
</g>
</svg>
